<svg width="155" height="30" viewBox="0 0 155 30" fill="none" xmlns="http://www.w3.org/2000/svg">
<g id="Group 23">
<g id="Group 5">
<circle id="Oval Copy 18" cx="30" cy="15" r="15" fill="#5175FF"/>
<g id="Oval Copy 17">
<circle id="Mask" cx="15" cy="15" r="15" fill="#5175FF"/>
<mask id="mask0_32_2460" style="mask-type:luminance" maskUnits="userSpaceOnUse" x="0" y="0" width="30" height="30">
<circle id="Mask_2" cx="15" cy="15" r="15" fill="white"/>
</mask>
<g mask="url(#mask0_32_2460)">
<circle id="Oval Copy 17_2" opacity="0.323544" cx="30" cy="15" r="15" fill="#B4C4FF"/>
</g>
</g>
</g>
<path id="officelite" fill-rule="evenodd" clip-rule="evenodd" d="M124.312 3.64844H121.003V21.0651H124.312V3.64844ZM72.95 12.583V21.0651H69.6415V12.583H67.746V9.75558H69.6415V8.22879C69.6415 7.30895 69.8444 6.52483 70.2504 5.87641C70.6563 5.228 71.1924 4.73227 71.8586 4.38921C72.5249 4.04616 73.2448 3.87463 74.0183 3.87463C74.5238 3.87463 75.035 3.95002 75.552 4.10082C76.0689 4.25161 76.5725 4.48534 77.0626 4.80201L75.7875 7.09784C75.596 6.93951 75.3931 6.83395 75.1786 6.78118C74.9642 6.7284 74.7689 6.70201 74.5927 6.70201C74.1026 6.70201 73.7063 6.86223 73.4038 7.18266C73.1012 7.5031 72.95 7.99883 72.95 8.66987V9.75558H75.7415V12.583H72.95ZM60.1296 21.2913C61.309 21.2913 62.3582 21.0368 63.2773 20.5279C64.1963 20.019 64.9219 19.3216 65.4542 18.4356C65.9865 17.5497 66.2526 16.5413 66.2526 15.4103C66.2526 14.2794 65.9865 13.271 65.4542 12.385C64.9219 11.4991 64.1963 10.8017 63.2773 10.2928C62.3582 9.78385 61.309 9.52939 60.1296 9.52939C58.9502 9.52939 57.8991 9.78385 56.9762 10.2928C56.0533 10.8017 55.3258 11.4991 54.7935 12.385C54.2613 13.271 53.9951 14.2794 53.9951 15.4103C53.9951 16.5413 54.2613 17.5497 54.7935 18.4356C55.3258 19.3216 56.0533 20.019 56.9762 20.5279C57.8991 21.0368 58.9502 21.2913 60.1296 21.2913ZM60.1296 18.4639C59.2872 18.4639 58.5902 18.1736 58.0388 17.5931C57.4874 17.0125 57.2117 16.2849 57.2117 15.4103C57.2117 14.5357 57.4874 13.8082 58.0388 13.2276C58.5902 12.647 59.2872 12.3568 60.1296 12.3568C60.972 12.3568 61.669 12.647 62.2204 13.2276C62.7718 13.8082 63.0475 14.5357 63.0475 15.4103C63.0475 16.2849 62.7718 17.0125 62.2204 17.5931C61.669 18.1736 60.972 18.4639 60.1296 18.4639ZM83.4154 21.0651V12.583H86.2069V9.75558H83.4154V8.66987C83.4154 7.99883 83.5666 7.5031 83.8691 7.18266C84.1716 6.86223 84.568 6.70201 85.0581 6.70201C85.2343 6.70201 85.4296 6.7284 85.644 6.78118C85.8584 6.83395 86.0614 6.93951 86.2529 7.09784L87.528 4.80201C87.0379 4.48534 86.5343 4.25161 86.0174 4.10082C85.5004 3.95002 84.9892 3.87463 84.4837 3.87463C83.7102 3.87463 82.9903 4.04616 82.324 4.38921C81.6577 4.73227 81.1216 5.228 80.7157 5.87641C80.3098 6.52483 80.1069 7.30895 80.1069 8.22879V9.75558H78.2114V12.583H80.1069V21.0651H83.4154ZM92.1691 7.22225C91.8321 7.55399 91.3879 7.71987 90.8365 7.71987C90.2851 7.71987 89.8409 7.55399 89.5039 7.22225C89.1669 6.8905 88.9984 6.4532 88.9984 5.91034C88.9984 5.36749 89.1669 4.93018 89.5039 4.59844C89.8409 4.26669 90.2851 4.10082 90.8365 4.10082C91.3879 4.10082 91.8321 4.26669 92.1691 4.59844C92.506 4.93018 92.6745 5.36749 92.6745 5.91034C92.6745 6.4532 92.506 6.8905 92.1691 7.22225ZM92.4907 9.75558H89.1822V21.0651H92.4907V9.75558ZM103.364 20.8502C102.587 21.1443 101.742 21.2913 100.831 21.2913C99.6132 21.2913 98.5276 21.0368 97.5741 20.5279C96.6206 20.019 95.8681 19.3216 95.3167 18.4356C94.7653 17.5497 94.4896 16.5413 94.4896 15.4103C94.4896 14.2794 94.7653 13.271 95.3167 12.385C95.8681 11.4991 96.6206 10.8017 97.5741 10.2928C98.5276 9.78385 99.6132 9.52939 100.831 9.52939C101.742 9.52939 102.587 9.67641 103.364 9.97046C104.141 10.2645 104.809 10.6754 105.369 11.2032L103.037 13.3633C102.485 12.6923 101.75 12.3568 100.831 12.3568C99.9884 12.3568 99.2915 12.647 98.7401 13.2276C98.1887 13.8082 97.913 14.5357 97.913 15.4103C97.913 16.2849 98.1887 17.0125 98.7401 17.5931C99.2915 18.1736 99.9884 18.4639 100.831 18.4639C101.75 18.4639 102.485 18.1284 103.037 17.4574L105.369 19.6175C104.809 20.1453 104.141 20.5562 103.364 20.8502ZM113.226 21.2913C114.023 21.2913 114.856 21.1631 115.725 20.9068C116.594 20.6504 117.473 20.1792 118.361 19.4931L116.362 17.1407C115.933 17.5403 115.457 17.8664 114.932 18.119C114.408 18.3716 113.747 18.4978 112.95 18.4978C112.208 18.4978 111.559 18.3018 111.003 17.9097C110.448 17.5177 110.067 17.0088 109.86 16.383H118.821V15.399C118.821 14.2605 118.56 13.2502 118.04 12.3681C117.519 11.4859 116.808 10.7923 115.909 10.2871C115.009 9.78197 113.981 9.52939 112.824 9.52939C111.66 9.52939 110.62 9.78385 109.705 10.2928C108.79 10.8017 108.068 11.4954 107.54 12.3737C107.011 13.2521 106.747 14.253 106.747 15.3764C106.747 16.5149 107.023 17.5309 107.574 18.4243C108.126 19.3178 108.888 20.019 109.86 20.5279C110.833 21.0368 111.955 21.2913 113.226 21.2913ZM109.791 14.5734H115.42C115.26 13.9099 114.93 13.3746 114.432 12.9675C113.935 12.5603 113.337 12.3568 112.64 12.3568C111.936 12.3568 111.325 12.5641 110.808 12.9788C110.291 13.3935 109.952 13.925 109.791 14.5734ZM130.102 7.22225C129.765 7.55399 129.321 7.71987 128.769 7.71987C128.218 7.71987 127.774 7.55399 127.437 7.22225C127.1 6.8905 126.931 6.4532 126.931 5.91034C126.931 5.36749 127.1 4.93018 127.437 4.59844C127.774 4.26669 128.218 4.10082 128.769 4.10082C129.321 4.10082 129.765 4.26669 130.102 4.59844C130.439 4.93018 130.607 5.36749 130.607 5.91034C130.607 6.4532 130.439 6.8905 130.102 7.22225ZM140.82 20.8728C140.092 21.1518 139.376 21.2913 138.672 21.2913C137.308 21.2913 136.261 20.9313 135.53 20.2112C134.798 19.4912 134.433 18.4601 134.433 17.1181V12.583H132.537V9.75558H134.433V6.9282H137.741V9.75558H140.533V12.583H137.741V16.7449C137.741 17.2802 137.915 17.7005 138.264 18.0059C138.612 18.3112 139.055 18.4639 139.591 18.4639C139.989 18.4639 140.399 18.3772 140.82 18.2038V20.8728ZM149.022 21.2913C149.819 21.2913 150.652 21.1631 151.521 20.9068C152.39 20.6504 153.269 20.1792 154.157 19.4931L152.158 17.1407C151.729 17.5403 151.253 17.8664 150.728 18.119C150.204 18.3716 149.543 18.4978 148.746 18.4978C148.004 18.4978 147.355 18.3018 146.799 17.9097C146.244 17.5177 145.863 17.0088 145.656 16.383H154.617V15.399C154.617 14.2605 154.356 13.2502 153.836 12.3681C153.315 11.4859 152.604 10.7923 151.705 10.2871C150.805 9.78197 149.777 9.52939 148.62 9.52939C147.456 9.52939 146.416 9.78385 145.501 10.2928C144.586 10.8017 143.864 11.4954 143.336 12.3737C142.807 13.2521 142.543 14.253 142.543 15.3764C142.543 16.5149 142.819 17.5309 143.37 18.4243C143.922 19.3178 144.684 20.019 145.656 20.5279C146.629 21.0368 147.751 21.2913 149.022 21.2913ZM145.587 14.5734H151.216C151.056 13.9099 150.726 13.3746 150.228 12.9675C149.731 12.5603 149.133 12.3568 148.436 12.3568C147.732 12.3568 147.121 12.5641 146.604 12.9788C146.087 13.3935 145.748 13.925 145.587 14.5734ZM127.115 21.0651H130.423V9.75558H127.115V21.0651Z" fill="#25293A"/>
</g>
</svg>
