<svg width="221" height="267" viewBox="0 0 221 267" fill="none" xmlns="http://www.w3.org/2000/svg">
<g id="Group 15">
<g id="Path">
<g id="Mask" filter="url(#filter0_d_32_1545)">
<rect x="25" y="17" width="81" height="111" rx="4" fill="white"/>
</g>
<mask id="mask0_32_1545" style="mask-type:luminance" maskUnits="userSpaceOnUse" x="25" y="17" width="81" height="111">
<rect id="Mask_2" x="25" y="17" width="81" height="111" rx="4" fill="white"/>
</mask>
<g mask="url(#mask0_32_1545)">
<path id="Path 3" fill-rule="evenodd" clip-rule="evenodd" d="M11.6836 103.46L45.431 92.0861L65.5002 62.682L85.931 69.1513L113.113 27.2402V113.63L11.6836 113.271V103.46Z" fill="url(#paint0_linear_32_1545)"/>
<path id="Path 3 Copy" d="M113.474 26.0195V113.63H112.751L112.751 28.4606L86.085 69.5772L65.6474 63.1059L45.6621 92.3876L11.7997 103.8L11.5674 103.12L45.1999 91.7845L65.3525 62.2584L85.7769 68.7256L113.474 26.0195Z" fill="#5175FF"/>
<rect id="Rectangle" opacity="0.152227" x="65.5" y="17" width="0.361607" height="89.8058" fill="#5175FF"/>
<rect id="Rectangle Copy 7" opacity="0.152227" x="45.25" y="17" width="0.361607" height="89.8058" fill="#5175FF"/>
<rect id="Rectangle Copy 8" opacity="0.152227" x="86.1113" y="17" width="0.361607" height="89.8058" fill="#5175FF"/>
<ellipse id="Oval" cx="65.4997" cy="62.6221" rx="2.16964" ry="2.15534" fill="#5175FF"/>
<path id="Oval Copy 5" fill-rule="evenodd" clip-rule="evenodd" d="M72.0091 62.6223C72.0091 59.0512 69.0949 56.1562 65.5001 56.1562C61.9054 56.1562 58.9912 59.0512 58.9912 62.6223C58.9912 66.1934 61.9054 69.0883 65.5001 69.0883C69.0949 69.0883 72.0091 66.1934 72.0091 62.6223ZM59.3528 62.6223C59.3528 59.2496 62.1051 56.5155 65.5001 56.5155C68.8952 56.5155 71.6475 59.2496 71.6475 62.6223C71.6475 65.995 68.8952 68.7291 65.5001 68.7291C62.1051 68.7291 59.3528 65.995 59.3528 62.6223Z" fill="#5175FF"/>
<ellipse id="Oval Copy" cx="45.2497" cy="92.0772" rx="2.16964" ry="2.15534" fill="#5175FF"/>
<ellipse id="Oval Copy 2" cx="86.112" cy="69.087" rx="2.16964" ry="2.15534" fill="#5175FF"/>
<ellipse id="Oval Copy 3" cx="106" cy="38.5538" rx="2.16964" ry="2.15534" fill="#5175FF"/>
<ellipse id="Oval Copy 4" cx="24.9997" cy="98.9034" rx="2.16964" ry="2.15534" fill="#5175FF"/>
<g id="Group 4">
<path id="Jan" opacity="0.5" fill-rule="evenodd" clip-rule="evenodd" d="M63.2743 121.982C63.0924 122.147 62.8072 122.229 62.4187 122.229L62.3799 121.728C62.7619 121.728 62.9528 121.566 62.9528 121.243V118.641H63.5472V121.207C63.5472 121.559 63.4562 121.818 63.2743 121.982ZM65.0029 121.508C64.8986 121.551 64.7844 121.573 64.6601 121.573C64.4632 121.573 64.3024 121.521 64.1774 121.415C64.0525 121.31 63.99 121.173 63.99 121.004C63.99 120.876 64.0272 120.76 64.1017 120.659C64.1761 120.557 64.2787 120.477 64.4095 120.418C64.5403 120.358 64.6898 120.329 64.8582 120.329C64.9113 120.329 64.9673 120.332 65.0262 120.339C65.0851 120.345 65.1443 120.353 65.2039 120.364C65.1612 120.154 65.0077 120.049 64.7436 120.049C64.5869 120.049 64.4296 120.108 64.2716 120.225L64.0793 119.756C64.214 119.692 64.3467 119.644 64.4775 119.613C64.6083 119.582 64.7326 119.567 64.8504 119.567C65.0381 119.567 65.201 119.602 65.3389 119.672C65.4768 119.742 65.5839 119.841 65.6603 119.969C65.7367 120.097 65.7749 120.247 65.7749 120.42V121.535H65.3049L65.268 121.328C65.1955 121.404 65.1071 121.464 65.0029 121.508ZM64.8213 121.091C64.7397 121.091 64.674 121.071 64.6241 121.032C64.5743 120.993 64.5493 120.941 64.5493 120.877C64.5493 120.806 64.5801 120.751 64.6416 120.713C64.7031 120.674 64.7889 120.655 64.8989 120.655C64.952 120.655 65.0061 120.659 65.0611 120.668C65.1162 120.677 65.1676 120.69 65.2155 120.705V120.744C65.2155 120.841 65.1777 120.924 65.1019 120.991C65.0262 121.058 64.9326 121.091 64.8213 121.091ZM66.8004 120.557V121.535H66.241V119.605H66.7305L66.7538 119.841C66.8302 119.753 66.9218 119.686 67.0286 119.638C67.1354 119.591 67.2529 119.567 67.3811 119.567C67.6077 119.567 67.7883 119.641 67.923 119.79C68.0577 119.938 68.125 120.145 68.125 120.41V121.535H67.5637V120.518C67.5637 120.205 67.4459 120.049 67.2102 120.049C67.0885 120.049 66.9898 120.093 66.914 120.182C66.8383 120.271 66.8004 120.396 66.8004 120.557Z" fill="#747B95"/>
<path id="Dec" opacity="0.5" fill-rule="evenodd" clip-rule="evenodd" d="M42.7224 121.539C43.2947 121.539 43.7343 121.412 44.0412 121.159C44.348 120.905 44.5015 120.548 44.5015 120.088C44.5015 119.629 44.348 119.273 44.0412 119.022C43.7343 118.77 43.2947 118.645 42.7224 118.645H41.8057V121.539H42.7224ZM42.736 121.018H42.4V119.165H42.736C43.1115 119.165 43.3993 119.246 43.5993 119.407C43.7994 119.567 43.8994 119.794 43.8994 120.088C43.8994 120.382 43.7994 120.611 43.5993 120.774C43.3993 120.936 43.1115 121.018 42.736 121.018ZM46.233 121.508C46.086 121.552 45.9452 121.573 45.8105 121.573C45.5956 121.573 45.4059 121.53 45.2415 121.443C45.077 121.356 44.9482 121.237 44.855 121.084C44.7617 120.932 44.7151 120.759 44.7151 120.564C44.7151 120.373 44.7598 120.202 44.8491 120.052C44.9385 119.902 45.0605 119.784 45.2152 119.697C45.37 119.61 45.5457 119.567 45.7426 119.567C45.9381 119.567 46.1119 119.61 46.264 119.696C46.4162 119.782 46.5363 119.901 46.6243 120.051C46.7124 120.202 46.7564 120.374 46.7564 120.568V120.736H45.2415C45.2764 120.843 45.3408 120.93 45.4347 120.996C45.5286 121.063 45.6383 121.097 45.7639 121.097C45.8986 121.097 46.0103 121.075 46.099 121.032C46.1876 120.989 46.2683 120.933 46.3408 120.865L46.6787 121.267C46.5285 121.384 46.3799 121.464 46.233 121.508ZM46.1815 120.427H45.2298C45.257 120.317 45.3143 120.226 45.4017 120.155C45.4891 120.085 45.5924 120.049 45.7115 120.049C45.8293 120.049 45.9303 120.084 46.0145 120.153C46.0986 120.223 46.1543 120.314 46.1815 120.427ZM48.4898 121.498C48.3584 121.548 48.2157 121.573 48.0616 121.573C47.8557 121.573 47.6722 121.53 47.511 121.443C47.3497 121.356 47.2225 121.237 47.1293 121.086C47.0361 120.935 46.9895 120.763 46.9895 120.57C46.9895 120.377 47.0361 120.205 47.1293 120.054C47.2225 119.903 47.3497 119.784 47.511 119.697C47.6722 119.61 47.8557 119.567 48.0616 119.567C48.2157 119.567 48.3584 119.592 48.4898 119.642C48.6213 119.692 48.7342 119.762 48.8288 119.852L48.4345 120.221C48.3413 120.106 48.217 120.049 48.0616 120.049C47.9191 120.049 47.8013 120.099 47.7081 120.198C47.6149 120.297 47.5682 120.421 47.5682 120.57C47.5682 120.719 47.6149 120.843 47.7081 120.942C47.8013 121.042 47.9191 121.091 48.0616 121.091C48.217 121.091 48.3413 121.034 48.4345 120.919L48.8288 121.288C48.7342 121.378 48.6213 121.448 48.4898 121.498Z" fill="#747B95"/>
<path id="Nov" opacity="0.5" fill-rule="evenodd" clip-rule="evenodd" d="M22.0504 119.586V121.535H21.4678V118.641H22.0582L23.5537 120.585V118.641H24.148V121.535H23.5479L22.0504 119.586ZM26.0864 121.443C25.931 121.53 25.7536 121.573 25.5542 121.573C25.3548 121.573 25.1771 121.53 25.0211 121.443C24.8651 121.356 24.742 121.237 24.6521 121.086C24.5621 120.935 24.5171 120.763 24.5171 120.57C24.5171 120.377 24.5621 120.205 24.6521 120.054C24.742 119.903 24.8651 119.784 25.0211 119.697C25.1771 119.61 25.3548 119.567 25.5542 119.567C25.7536 119.567 25.931 119.61 26.0864 119.697C26.2418 119.784 26.3644 119.903 26.4544 120.054C26.5444 120.205 26.5894 120.377 26.5894 120.57C26.5894 120.763 26.5444 120.935 26.4544 121.086C26.3644 121.237 26.2418 121.356 26.0864 121.443ZM25.5542 121.091C25.4118 121.091 25.294 121.041 25.2007 120.942C25.1075 120.843 25.0609 120.719 25.0609 120.57C25.0609 120.421 25.1075 120.297 25.2007 120.198C25.294 120.099 25.4118 120.049 25.5542 120.049C25.6966 120.049 25.8145 120.099 25.9077 120.198C26.0009 120.297 26.0475 120.421 26.0475 120.57C26.0475 120.719 26.0009 120.843 25.9077 120.942C25.8145 121.041 25.6966 121.091 25.5542 121.091ZM28.2151 119.605H28.8036L28.0364 121.535H27.4926L26.6865 119.605H27.2945L27.646 120.545C27.6641 120.594 27.6845 120.665 27.7072 120.759C27.7298 120.853 27.7476 120.938 27.7606 121.014H27.7684C27.7839 120.938 27.8036 120.854 27.8276 120.761C27.8515 120.668 27.8726 120.596 27.8907 120.545L28.2151 119.605Z" fill="#747B95"/>
<path id="Feb" opacity="0.5" fill-rule="evenodd" clip-rule="evenodd" d="M83.0914 121.535V120.308H84.214V119.787H83.0914V119.162H84.2917V118.641H82.4971V121.535H83.0914ZM85.6979 121.573C85.8325 121.573 85.9733 121.551 86.1203 121.508C86.2673 121.464 86.4158 121.384 86.566 121.267L86.2281 120.865C86.1556 120.933 86.075 120.989 85.9863 121.032C85.8976 121.075 85.7859 121.097 85.6512 121.097C85.5256 121.097 85.4159 121.063 85.322 120.996C85.2282 120.93 85.1637 120.843 85.1288 120.736H86.6437V120.568C86.6437 120.374 86.5997 120.202 86.5117 120.051C86.4236 119.901 86.3035 119.782 86.1514 119.696C85.9992 119.61 85.8254 119.567 85.6299 119.567C85.4331 119.567 85.2573 119.61 85.1026 119.697C84.9478 119.784 84.8258 119.902 84.7365 120.052C84.6471 120.202 84.6024 120.373 84.6024 120.564C84.6024 120.758 84.6491 120.932 84.7423 121.084C84.8355 121.237 84.9643 121.356 85.1288 121.443C85.2932 121.53 85.4829 121.573 85.6979 121.573ZM85.1171 120.427H86.0688C86.0416 120.314 85.986 120.223 85.9018 120.153C85.8176 120.084 85.7166 120.049 85.5988 120.049C85.4797 120.049 85.3764 120.084 85.289 120.155C85.2016 120.226 85.1443 120.317 85.1171 120.427ZM88.1917 121.573C88.3742 121.573 88.5367 121.53 88.6792 121.443C88.8216 121.356 88.9336 121.237 89.0152 121.086C89.0968 120.935 89.1375 120.763 89.1375 120.57C89.1375 120.377 89.0968 120.205 89.0152 120.054C88.9336 119.903 88.8216 119.784 88.6792 119.697C88.5367 119.61 88.3742 119.567 88.1917 119.567C88.07 119.567 87.9567 119.587 87.8518 119.628C87.7469 119.668 87.6537 119.724 87.5721 119.796V118.641H87.0127V121.535H87.541L87.5546 121.326C87.6362 121.405 87.7314 121.466 87.8401 121.509C87.9489 121.552 88.0661 121.573 88.1917 121.573ZM87.7119 120.942C87.8052 121.041 87.923 121.091 88.0654 121.091C88.2079 121.091 88.3257 121.041 88.4189 120.942C88.5121 120.843 88.5588 120.719 88.5588 120.57C88.5588 120.421 88.5121 120.297 88.4189 120.198C88.3257 120.099 88.2079 120.049 88.0654 120.049C87.923 120.049 87.8052 120.099 87.7119 120.198C87.6187 120.297 87.5721 120.421 87.5721 120.57C87.5721 120.719 87.6187 120.843 87.7119 120.942Z" fill="#747B95"/>
<path id="Mar" opacity="0.5" fill-rule="evenodd" clip-rule="evenodd" d="M103.127 120.755C103.13 120.986 103.131 121.245 103.131 121.535H102.537V118.641H103.31L103.951 120.005C103.981 120.079 104.01 120.154 104.039 120.23C104.069 120.305 104.097 120.38 104.124 120.456C104.151 120.378 104.18 120.3 104.21 120.223C104.241 120.146 104.272 120.073 104.305 120.005L104.944 118.641H105.701V121.535H105.107C105.107 121.182 105.11 120.838 105.116 120.503C105.123 120.167 105.136 119.83 105.157 119.493C105.124 119.582 105.088 119.67 105.051 119.758C105.014 119.845 104.976 119.931 104.936 120.016L104.444 121.062H103.792L103.302 120.02C103.262 119.922 103.223 119.826 103.186 119.732C103.148 119.637 103.111 119.542 103.075 119.447C103.089 119.671 103.101 119.887 103.109 120.096C103.118 120.305 103.123 120.525 103.127 120.755ZM107.157 121.508C107.052 121.551 106.938 121.573 106.814 121.573C106.617 121.573 106.456 121.521 106.331 121.415C106.206 121.31 106.144 121.173 106.144 121.004C106.144 120.876 106.181 120.76 106.256 120.659C106.33 120.557 106.433 120.477 106.563 120.418C106.694 120.358 106.844 120.329 107.012 120.329C107.065 120.329 107.121 120.332 107.18 120.339C107.239 120.345 107.298 120.353 107.358 120.364C107.315 120.154 107.162 120.049 106.897 120.049C106.741 120.049 106.583 120.108 106.425 120.225L106.233 119.756C106.368 119.692 106.501 119.644 106.631 119.613C106.762 119.582 106.886 119.567 107.004 119.567C107.192 119.567 107.355 119.602 107.493 119.672C107.631 119.742 107.738 119.841 107.814 119.969C107.891 120.097 107.929 120.247 107.929 120.42V121.535H107.459L107.422 121.328C107.349 121.404 107.261 121.464 107.157 121.508ZM106.975 121.091C106.894 121.091 106.828 121.071 106.778 121.032C106.728 120.993 106.703 120.941 106.703 120.877C106.703 120.806 106.734 120.751 106.795 120.713C106.857 120.674 106.943 120.655 107.053 120.655C107.106 120.655 107.16 120.659 107.215 120.668C107.27 120.677 107.321 120.69 107.369 120.705V120.744C107.369 120.841 107.331 120.924 107.256 120.991C107.18 121.058 107.086 121.091 106.975 121.091ZM108.954 120.684V121.535H108.395V119.605H108.884L108.911 119.881C109.053 119.672 109.247 119.567 109.494 119.567C109.578 119.567 109.665 119.58 109.754 119.605L109.677 120.086C109.602 120.061 109.528 120.049 109.455 120.049C109.305 120.049 109.184 120.104 109.092 120.214C109 120.324 108.954 120.481 108.954 120.684Z" fill="#747B95"/>
<rect id="Rectangle_2" opacity="0.25" x="25" y="113.271" width="81" height="0.359223" fill="#747B95"/>
<rect id="Rectangle Copy 4" opacity="0.25" x="65.5" y="110.398" width="0.361607" height="2.87379" fill="#747B95"/>
<rect id="Rectangle Copy 5" opacity="0.25" x="45.25" y="110.398" width="0.361607" height="2.87379" fill="#747B95"/>
<rect id="Rectangle Copy 6" opacity="0.25" x="85.75" y="110.398" width="0.361607" height="2.87379" fill="#747B95"/>
</g>
</g>
</g>
<g id="Group 7">
<g id="Group 17">
<g id="Mask_3" filter="url(#filter1_d_32_1545)">
<rect x="25" y="139" width="81" height="53" rx="4" fill="#333950"/>
</g>
<mask id="mask1_32_1545" style="mask-type:luminance" maskUnits="userSpaceOnUse" x="25" y="139" width="81" height="53">
<rect id="Mask_4" x="25" y="139" width="81" height="53" rx="4" fill="white"/>
</mask>
<g mask="url(#mask1_32_1545)">
<g id="Group 17_2">
<g id="Aa">
<path id="Aa_2" fill-rule="evenodd" clip-rule="evenodd" d="M54.1604 172.597V173.486H48.1982V172.597L50.3592 172.283L56.2433 153.883H58.951L65.1996 172.362L67.2824 172.597V173.486H58.4042V172.597L60.7214 172.336L59.1332 167.291H53.145L51.7131 172.257L54.1604 172.597ZM53.4054 166.376H58.8468L56.009 157.437L53.4054 166.376ZM79.8837 173.93C81.55 173.93 82.5393 173.329 83.1902 171.891L82.7476 171.525C82.253 172.309 81.9666 172.518 81.576 172.518C81.0813 172.518 80.7689 172.179 80.7689 171.185V164.155C80.7689 160.365 79.2849 158.77 75.5878 158.77C71.5523 158.77 69.2872 160.339 69.0789 162.796C69.2872 163.658 69.9381 164.129 70.8754 164.129C71.8647 164.129 72.7499 163.423 72.828 161.645L73.0103 159.79C73.4008 159.711 73.7393 159.685 74.1038 159.685C76.0825 159.685 76.7073 160.495 76.7073 163.214V164.808L76.7072 164.808C75.796 165.043 74.8848 165.279 74.1558 165.488C69.9641 166.716 68.6102 167.997 68.6102 170.375C68.6102 172.571 70.1724 173.93 72.4115 173.93C74.4943 173.93 75.4837 173.12 76.8115 171.656C77.202 173.067 78.1653 173.93 79.8837 173.93ZM72.4896 169.853C72.4896 171.421 73.2186 172.153 74.4422 172.153C75.1452 172.153 75.744 171.813 76.7073 170.95V165.514C76.1085 165.671 75.5878 165.827 75.2754 165.958C73.4529 166.716 72.4896 167.945 72.4896 169.853Z" fill="#FEFEFE"/>
<path id="Decoration" d="M47.7812 175.301V176.753H82.1817V175.301H47.7812Z" fill="#FEFEFE"/>
</g>
<g id="Aa Copy" opacity="0.15">
<path id="Decoration_2" d="M0.772461 164.773V166.225H35.1729V164.773H0.772461Z" fill="#FEFEFE"/>
</g>
<g id="Aa Copy 2" opacity="0.15">
<path id="Decoration_3" d="M94.79 164.773V166.225H129.19V164.773H94.79Z" fill="#FEFEFE"/>
</g>
</g>
</g>
</g>
</g>
<g id="Group 8">
<g id="Rectangle Copy" filter="url(#filter2_d_32_1545)">
<rect x="115" width="81" height="175" rx="4" fill="#5175FF"/>
</g>
<rect id="Rectangle_3" opacity="0.15" x="115" y="65.9414" width="81" height="0.362319" fill="white"/>
<g id="Group 3">
<path id="Oval Copy 6" opacity="0.145996" d="M175.25 32.9715C175.25 43.9021 166.407 52.7614 155.5 52.7614C144.593 52.7614 135.75 43.9021 135.75 32.9715C135.75 22.0409 144.593 13.1816 155.5 13.1816C166.407 13.1816 175.25 22.0409 175.25 32.9715Z" stroke="white" stroke-linejoin="round"/>
<path id="Oval_2" d="M147.254 51.2736L148.544 48.3416C150.716 49.297 153.071 49.7969 155.5 49.7969C165.053 49.7969 172.797 42.0528 172.797 32.5C172.797 22.9472 165.053 15.2031 155.5 15.2031C145.947 15.2031 138.203 22.9472 138.203 32.5H135C135 21.1782 144.178 12 155.5 12C166.822 12 176 21.1782 176 32.5C176 43.8218 166.822 53 155.5 53C152.625 53 149.831 52.407 147.254 51.2736Z" fill="#5CFCD3"/>
<path id="87%" fill-rule="evenodd" clip-rule="evenodd" d="M147.126 37.1264C147.725 37.1264 148.249 37.0227 148.697 36.8151C149.145 36.6075 149.495 36.3169 149.745 35.9432C149.996 35.5696 150.121 35.1356 150.121 34.6412C150.121 34.1279 149.988 33.6797 149.723 33.2966C149.457 32.9135 149.089 32.6239 148.618 32.4276C148.998 32.2427 149.297 31.986 149.514 31.6577C149.73 31.3293 149.838 30.95 149.838 30.5198C149.838 30.0744 149.725 29.6848 149.499 29.3507C149.273 29.0167 148.957 28.7573 148.55 28.5723C148.143 28.3874 147.669 28.2949 147.126 28.2949C146.58 28.2949 146.103 28.3874 145.694 28.5723C145.285 28.7573 144.968 29.0167 144.742 29.3507C144.516 29.6848 144.403 30.0744 144.403 30.5198C144.403 30.9538 144.511 31.3341 144.728 31.6605C144.945 31.987 145.245 32.2427 145.629 32.4276C145.162 32.6239 144.796 32.9135 144.53 33.2966C144.265 33.6797 144.132 34.1279 144.132 34.6412C144.132 35.1356 144.257 35.5696 144.508 35.9432C144.758 36.3169 145.107 36.6075 145.556 36.8151C146.004 37.0227 146.527 37.1264 147.126 37.1264ZM147.126 31.6917C146.806 31.6917 146.547 31.5983 146.35 31.4114C146.152 31.2246 146.053 30.9783 146.053 30.6726C146.053 30.3632 146.152 30.116 146.35 29.931C146.547 29.7461 146.806 29.6536 147.126 29.6536C147.443 29.6536 147.7 29.7461 147.898 29.931C148.095 30.116 148.194 30.3632 148.194 30.6726C148.194 30.9783 148.095 31.2246 147.898 31.4114C147.7 31.5983 147.443 31.6917 147.126 31.6917ZM146.146 35.2696C146.393 35.4885 146.72 35.5979 147.126 35.5979C147.533 35.5979 147.86 35.4885 148.107 35.2696C148.353 35.0507 148.477 34.7638 148.477 34.4091C148.477 34.0505 148.353 33.7627 148.107 33.5457C147.86 33.3287 147.533 33.2202 147.126 33.2202C146.72 33.2202 146.393 33.3287 146.146 33.5457C145.899 33.7627 145.776 34.0505 145.776 34.4091C145.776 34.7638 145.899 35.0507 146.146 35.2696ZM154.025 36.9566L156.912 29.6649V28.4648H151.42V29.9933H154.907L152.161 36.9566H154.025ZM161.319 32.2719C161.045 32.3984 160.707 32.4616 160.308 32.4616C159.777 32.4616 159.354 32.354 159.04 32.1389C158.725 31.9238 158.499 31.6596 158.362 31.3463C158.224 31.0331 158.155 30.7293 158.155 30.4349C158.155 30.1405 158.224 29.8367 158.362 29.5234C158.499 29.2102 158.725 28.946 159.04 28.7308C159.354 28.5157 159.777 28.4081 160.308 28.4081C160.707 28.4081 161.045 28.4714 161.319 28.5978C161.594 28.7242 161.817 28.8884 161.986 29.0903C162.156 29.2922 162.278 29.5111 162.353 29.747C162.429 29.9829 162.466 30.2122 162.466 30.4349C162.466 30.6538 162.429 30.8821 162.353 31.1199C162.278 31.3576 162.156 31.5775 161.986 31.7794C161.817 31.9813 161.594 32.1455 161.319 32.2719ZM161.026 36.9623L166.433 28.4534H164.89L159.489 36.9623H161.026ZM159.794 31.0293C159.918 31.1916 160.09 31.2727 160.308 31.2727C160.53 31.2727 160.704 31.1916 160.828 31.0293C160.952 30.867 161.014 30.6689 161.014 30.4349C161.014 30.2009 160.952 30.0027 160.828 29.8404C160.704 29.6781 160.53 29.597 160.308 29.597C160.09 29.597 159.918 29.6781 159.794 29.8404C159.67 30.0027 159.607 30.2009 159.607 30.4349C159.607 30.6689 159.67 30.867 159.794 31.0293ZM165.602 37.0132C166.133 37.0132 166.556 36.9057 166.871 36.6905C167.185 36.4754 167.412 36.2112 167.552 35.898C167.691 35.5847 167.761 35.2809 167.761 34.9865C167.761 34.7676 167.723 34.5402 167.648 34.3043C167.572 34.0684 167.45 33.8486 167.28 33.6448C167.111 33.441 166.889 33.2759 166.614 33.1494C166.339 33.023 166.002 32.9598 165.602 32.9598C165.203 32.9598 164.866 33.023 164.591 33.1494C164.316 33.2759 164.095 33.441 163.927 33.6448C163.759 33.8486 163.638 34.0684 163.563 34.3043C163.487 34.5402 163.45 34.7676 163.45 34.9865C163.45 35.2809 163.518 35.5847 163.656 35.898C163.793 36.2112 164.019 36.4754 164.334 36.6905C164.648 36.9057 165.071 37.0132 165.602 37.0132ZM165.085 35.5838C165.208 35.7442 165.38 35.8244 165.602 35.8244C165.824 35.8244 165.998 35.7442 166.122 35.5838C166.246 35.4234 166.309 35.2262 166.309 34.9922C166.309 34.7544 166.246 34.5544 166.122 34.3921C165.998 34.2298 165.824 34.1486 165.602 34.1486C165.38 34.1486 165.208 34.2298 165.085 34.3921C164.963 34.5544 164.902 34.7544 164.902 34.9922C164.902 35.2262 164.963 35.4234 165.085 35.5838Z" fill="#5CFCD3"/>
</g>
<path id="98k" fill-rule="evenodd" clip-rule="evenodd" d="M148.426 85.3355C147.708 86.1233 146.866 86.7956 145.901 87.3523L144.601 85.8733C145.275 85.4817 145.877 85.0406 146.409 84.55C146.941 84.0593 147.372 83.5428 147.702 83.0002C147.57 83.0333 147.428 83.0592 147.275 83.0781C147.122 83.0969 146.953 83.1064 146.77 83.1064C146.063 83.1064 145.435 82.9578 144.884 82.6606C144.333 82.3633 143.901 81.9553 143.588 81.4363C143.275 80.9174 143.118 80.3229 143.118 79.653C143.118 78.9642 143.282 78.3557 143.609 77.8273C143.936 77.2989 144.386 76.8837 144.958 76.5818C145.53 76.2799 146.183 76.1289 146.918 76.1289C147.681 76.1289 148.346 76.2928 148.913 76.6207C149.48 76.9486 149.919 77.4098 150.23 78.0042C150.541 78.5986 150.696 79.2945 150.696 80.0918C150.696 80.9928 150.497 81.8951 150.1 82.7985C149.702 83.702 149.144 84.5476 148.426 85.3355ZM145.753 80.9622C146.049 81.2783 146.426 81.4363 146.883 81.4363C147.344 81.4363 147.727 81.2759 148.03 80.9551C148.334 80.6343 148.486 80.2286 148.486 79.7379C148.486 79.2473 148.336 78.8416 148.037 78.5208C147.738 78.2 147.358 78.0396 146.897 78.0396C146.44 78.0396 146.061 78.2012 145.76 78.5243C145.458 78.8475 145.308 79.2567 145.308 79.7521C145.308 80.2427 145.456 80.6461 145.753 80.9622ZM155.852 87.1683C156.601 87.1683 157.255 87.0386 157.816 86.7791C158.376 86.5196 158.813 86.1564 159.126 85.6893C159.439 85.2223 159.595 84.6797 159.595 84.0617C159.595 83.4201 159.429 82.8599 159.097 82.381C158.765 81.9022 158.305 81.5401 157.717 81.2948C158.192 81.0636 158.565 80.7428 158.836 80.3324C159.107 79.9219 159.242 79.4478 159.242 78.91C159.242 78.3533 159.101 77.8662 158.818 77.4487C158.536 77.0312 158.14 76.7068 157.632 76.4757C157.123 76.2445 156.53 76.1289 155.852 76.1289C155.169 76.1289 154.573 76.2445 154.062 76.4757C153.551 76.7068 153.154 77.0312 152.872 77.4487C152.589 77.8662 152.448 78.3533 152.448 78.91C152.448 79.4525 152.583 79.9278 152.854 80.3359C153.125 80.744 153.5 81.0636 153.981 81.2948C153.397 81.5401 152.939 81.9022 152.607 82.381C152.275 82.8599 152.109 83.4201 152.109 84.0617C152.109 84.6797 152.265 85.2223 152.579 85.6893C152.892 86.1564 153.328 86.5196 153.889 86.7791C154.449 87.0386 155.103 87.1683 155.852 87.1683ZM154.881 80.0245C155.128 80.2581 155.452 80.3748 155.852 80.3748C156.248 80.3748 156.569 80.2581 156.816 80.0245C157.063 79.791 157.187 79.4832 157.187 79.1011C157.187 78.7142 157.063 78.4052 156.816 78.174C156.569 77.9429 156.248 77.8273 155.852 77.8273C155.452 77.8273 155.128 77.9429 154.881 78.174C154.634 78.4052 154.51 78.7142 154.51 79.1011C154.51 79.4832 154.634 79.791 154.881 80.0245ZM155.852 85.2576C155.344 85.2576 154.935 85.1208 154.627 84.8472C154.318 84.5736 154.164 84.215 154.164 83.7716C154.164 83.3234 154.318 82.9637 154.627 82.6924C154.935 82.4211 155.344 82.2855 155.852 82.2855C156.361 82.2855 156.769 82.4211 157.077 82.6924C157.386 82.9637 157.54 83.3234 157.54 83.7716C157.54 84.215 157.386 84.5736 157.077 84.8472C156.769 85.1208 156.361 85.2576 155.852 85.2576ZM163.254 85.2859V86.956H161.22V76.3412H163.254V82.7809C163.395 82.5591 163.55 82.3433 163.72 82.1333C163.889 81.9234 164.075 81.7005 164.278 81.4646L165.648 79.8795H167.873L165.161 83.0568L168.381 86.956H165.888L163.868 84.5641L163.254 85.2859Z" fill="white"/>
<g id="Group 2">
<rect id="Rectangle_4" x="126.571" y="102.174" width="5.0625" height="5.07246" rx="2.53125" fill="white"/>
<rect id="Rectangle Copy 3" x="137.058" y="102.174" width="47.3705" height="5.07246" rx="2.53623" fill="#7DA7FF"/>
</g>
<g id="Group 2 Copy">
<rect id="Rectangle_5" x="126.571" y="114.492" width="5.0625" height="5.07246" rx="2.53125" fill="white"/>
<rect id="Rectangle Copy 3_2" x="137.058" y="114.492" width="30.0134" height="5.07246" rx="2.53623" fill="#7DA7FF"/>
</g>
<g id="Group 2 Copy 2">
<rect id="Rectangle_6" x="126.571" y="126.812" width="5.0625" height="5.07246" rx="2.53125" fill="white"/>
<rect id="Rectangle Copy 3_3" x="137.058" y="126.812" width="47.3705" height="5.07246" rx="2.53623" fill="#7DA7FF"/>
</g>
<g id="Group 2 Copy 3">
<rect id="Rectangle_7" x="126.571" y="139.131" width="5.0625" height="5.07246" rx="2.53125" fill="white"/>
<rect id="Rectangle Copy 3_4" x="137.058" y="139.131" width="28.567" height="5.07246" rx="2.53623" fill="#7DA7FF"/>
</g>
<g id="Group 2 Copy 4">
<rect id="Rectangle_8" x="126.571" y="151.449" width="5.0625" height="5.07246" rx="2.53125" fill="white"/>
<rect id="Rectangle Copy 3_5" x="137.058" y="151.449" width="47.3705" height="5.07246" rx="2.53623" fill="#7DA7FF"/>
</g>
</g>
</g>
<defs>
<filter id="filter0_d_32_1545" x="0" y="17" width="131" height="186" filterUnits="userSpaceOnUse" color-interpolation-filters="sRGB">
<feFlood flood-opacity="0" result="BackgroundImageFix"/>
<feColorMatrix in="SourceAlpha" type="matrix" values="0 0 0 0 0 0 0 0 0 0 0 0 0 0 0 0 0 0 127 0" result="hardAlpha"/>
<feMorphology radius="25" operator="erode" in="SourceAlpha" result="effect1_dropShadow_32_1545"/>
<feOffset dy="50"/>
<feGaussianBlur stdDeviation="25"/>
<feColorMatrix type="matrix" values="0 0 0 0 0.293478 0 0 0 0 0.35972 0 0 0 0 0.604535 0 0 0 0.247159 0"/>
<feBlend mode="normal" in2="BackgroundImageFix" result="effect1_dropShadow_32_1545"/>
<feBlend mode="normal" in="SourceGraphic" in2="effect1_dropShadow_32_1545" result="shape"/>
</filter>
<filter id="filter1_d_32_1545" x="0" y="139" width="131" height="128" filterUnits="userSpaceOnUse" color-interpolation-filters="sRGB">
<feFlood flood-opacity="0" result="BackgroundImageFix"/>
<feColorMatrix in="SourceAlpha" type="matrix" values="0 0 0 0 0 0 0 0 0 0 0 0 0 0 0 0 0 0 127 0" result="hardAlpha"/>
<feMorphology radius="25" operator="erode" in="SourceAlpha" result="effect1_dropShadow_32_1545"/>
<feOffset dy="50"/>
<feGaussianBlur stdDeviation="25"/>
<feColorMatrix type="matrix" values="0 0 0 0 0.293478 0 0 0 0 0.35972 0 0 0 0 0.604535 0 0 0 0.247159 0"/>
<feBlend mode="normal" in2="BackgroundImageFix" result="effect1_dropShadow_32_1545"/>
<feBlend mode="normal" in="SourceGraphic" in2="effect1_dropShadow_32_1545" result="shape"/>
</filter>
<filter id="filter2_d_32_1545" x="90" y="0" width="131" height="250" filterUnits="userSpaceOnUse" color-interpolation-filters="sRGB">
<feFlood flood-opacity="0" result="BackgroundImageFix"/>
<feColorMatrix in="SourceAlpha" type="matrix" values="0 0 0 0 0 0 0 0 0 0 0 0 0 0 0 0 0 0 127 0" result="hardAlpha"/>
<feMorphology radius="25" operator="erode" in="SourceAlpha" result="effect1_dropShadow_32_1545"/>
<feOffset dy="50"/>
<feGaussianBlur stdDeviation="25"/>
<feColorMatrix type="matrix" values="0 0 0 0 0.293478 0 0 0 0 0.35972 0 0 0 0 0.604535 0 0 0 0.247159 0"/>
<feBlend mode="normal" in2="BackgroundImageFix" result="effect1_dropShadow_32_1545"/>
<feBlend mode="normal" in="SourceGraphic" in2="effect1_dropShadow_32_1545" result="shape"/>
</filter>
<linearGradient id="paint0_linear_32_1545" x1="11.6836" y1="27.2402" x2="11.6836" y2="113.63" gradientUnits="userSpaceOnUse">
<stop stop-color="#024AFF" stop-opacity="0.148028"/>
<stop offset="1" stop-color="#3B77CF" stop-opacity="0.01"/>
</linearGradient>
</defs>
</svg>
